<?xml version="1.0" encoding="utf-8"?>
<!-- Generator: Adobe Illustrator 28.3.0, SVG Export Plug-In . SVG Version: 6.00 Build 0)  -->
<svg version="1.1" id="Layer_1" xmlns="http://www.w3.org/2000/svg" xmlns:xlink="http://www.w3.org/1999/xlink" x="0px" y="0px"
	 viewBox="0 0 284.19 300" style="enable-background:new 0 0 284.19 300;" xml:space="preserve">
<style type="text/css">
	.st0{fill:#FFFFFF;}
	.st1{opacity:0.34;}
	.st2{fill:none;}
	.st3{fill:#606060;}
	.st4{fill:#E6E4D8;}
	.st5{fill:#566B60;}
	.st6{fill:#152628;}
	.st7{fill:#EDB256;}
	.st8{fill:#DE6C4A;}
	.st9{fill:#F4F2EA;}
</style>
<path class="st5" d="M280.94,179.26l0.05,0.07c-1.52-14.33-4.49-24.61-6.66-34.45c-2.71-12.29-6.69-23.92-10.39-35.96
	c-6.83-22.2-16.9-43.71-32.06-61.3c-7.67-8.89-16.63-16.66-26.47-23.07C177.41,6.3,143.6,1.72,110.77,1.64
	C81.75,1.58,51.55,8.88,33.53,33.43C20.87,50.68,16.29,73.61,21.34,94.4c2.94,12.07,9.73,24.08,21.08,29.15
	c11.98,5.35,26.32,1.7,37.37-5.38c11.04-7.08,19.72-17.21,29.24-26.23c23.22-21.99,58.68-29.33,89.24-19.62
	c18.41,5.86,35.85,18.79,40.34,37.4c-1.03-0.73-2.05-1.46-3.11-2.15c-28.02-18.39-64.57-23.61-97.38-9.38
	c-33.9,14.7-53.14,41.67-59.87,76.81c-14.91,2.64-29.24,3.89-42.77,7.88c-22.2,6.53-34.48,25.66-31.41,46.4
	c2.59,17.51,13.9,28.88,28.19,37.64c6.21,3.81,12.61,7.04,19.16,9.81c17.28,7.33,36.4,9.97,54.77,6.09
	c4.32-0.91,8.57-2.14,12.73-3.77c14.24-5.55,27.34-16.46,32.51-31.16c2.95-8.38,16.35-4.75,13.38,3.69
	c-6.34,18.03-20.76,31.67-38.14,39.17c-2.65,1.14-5.33,2.14-8.04,3.01c21.82,3.52,43.73,5.98,65.77,2.08
	c26.55-4.7,51.49-13.65,69.99-34.49C274.32,238.88,284.73,209.15,280.94,179.26z M159.88,175.93c-1.36,10.05-9.88,16.45-19.97,15
	c-9.79-1.41-16.43-10.39-14.89-20.16c1.58-10,10.3-16.57,20.08-15.12C154.96,157.11,161.25,165.75,159.88,175.93z"/>
</svg>
