<?xml version="1.0" encoding="utf-8"?>
<!-- Generator: Adobe Illustrator 28.3.0, SVG Export Plug-In . SVG Version: 6.00 Build 0)  -->
<svg version="1.1" id="Layer_1" xmlns="http://www.w3.org/2000/svg" xmlns:xlink="http://www.w3.org/1999/xlink" x="0px" y="0px"
	 viewBox="0 0 973.77 213.19" style="enable-background:new 0 0 973.77 213.19;" xml:space="preserve">
<style type="text/css">
	.st0{fill:#E6E4D8;}
	.st1{fill:#EDB256;}
</style>
<g>
	<path class="st0" d="M956,95.4c-1.42-12.37-8.99-20.09-20.17-24.64c-3.7-1.51-7.57-2.82-11.49-3.58
		c-8.11-1.57-16.35-2.5-24.44-4.15c-0.63-0.13-1.24-0.37-1.84-0.68c-2.39-1.24-2.36-4.75,0.09-5.86c0.83-0.38,1.66-0.63,2.48-0.62
		c6.54,0.04,13.16,0.56,19.59,1.74c9.24,1.69,18.34,4.14,27.73,6.32c2.38-11.82,4.7-23.31,7.07-35.07
		c-23.31-6.1-46.23-10.02-69.75-8.07c-12.73,1.03-25.22,3.55-36.11,10.92c-10.78,7.29-15.64,17.58-14.79,30.32
		c0.87,13.09,8.08,21.96,20.19,26.67c5.49,2.13,11.29,3.61,17.07,4.83c7.25,1.53,14.65,2.36,21.91,3.83
		c0.16,0.03,0.32,0.08,0.48,0.15c2.41,1.04,2.37,4.71-0.02,5.78c-0.3,0.13-0.6,0.22-0.9,0.23c-5.28,0.22-10.69,0.47-15.85-0.43
		c-11.41-1.99-22.69-4.66-34.56-7.17c-2.27,11.31-4.61,22.96-6.92,34.49c19.34,6.47,50.65,10.37,69.94,8.44
		c12.5-1.25,24.78-3.58,35.53-10.74C953.03,120.25,957.58,109.11,956,95.4z"/>
	<path class="st0" d="M853.18,139.77c-24.33,4.84-27.56,2.17-27.56-21.46c0-34.31,0-68.62,0-102.93c0-2.82,0-5.64,0-8.41
		c-22.34,0-43.84,0-66.89,0c-0.11,2.43-0.32,5.24-0.35,8.04c-0.36,25.57-0.73,51.14-1.03,76.71c0.91,2.42,1.79,4.9,2.58,7.48
		c0.7,2.29,1.44,4.58,2.18,6.88c3.45,10.74,7.02,21.85,7.74,33.68c0.13,2.05,0.16,4.08,0.11,6.06c-0.2,7.45-1.45,14.67-3.66,21.42
		c7.98,13.49,21.14,21.73,38.03,22.34c12.89,0.46,26.21-1.76,38.83-4.83c14.36-3.52,14.22-4.53,12.95-18.84
		C855.34,157.2,854.17,148.52,853.18,139.77z"/>
	<path class="st0" d="M619.71,136.75c8.42-4.65,15.37-10.86,20.62-18.33c-0.97,0.1-1.93,0.17-2.89,0.17c-3.55,0-6.92-0.7-10-2.08
		c-7.68-3.43-13.49-11.18-15.94-21.26c-3.33-13.68-0.34-28.62,7.99-39.96c4.76-6.49,11.13-11.49,18.86-14.96
		c-8.67-9.89-21.03-16.06-35.2-19.79c-45.14-11.88-91.12-6.26-138.07-4.72c0,56.34,0,112.73,0,168.83c26.82,0,53.57,0,81.14,0
		c0-13.35,0-26.04,0-38.6c14.51,0,28.27,0.94,41.86-0.17c10.63-0.87,20.18-3.47,28.47-7.49
		C617.56,137.79,618.62,137.25,619.71,136.75z M562.12,99.72c-2.57,6.59-8.01,9.36-15.83,7.74c0-18.28,0-36.45,0-54.9
		c7.54-1.86,12.99,0.89,15.64,7.36C567.3,73.02,567.26,86.54,562.12,99.72z"/>
	<path class="st0" d="M762.14,140.29c-0.84-7.91-2.48-13.57-3.68-19c-1.5-6.78-3.69-13.19-5.73-19.83
		c-3.76-12.24-9.32-24.11-17.68-33.81c-4.23-4.91-9.17-9.19-14.6-12.72c-15.44-10.06-34.09-12.59-52.19-12.63
		c-16-0.04-32.66,3.99-42.6,17.53c-6.98,9.51-9.51,22.16-6.72,33.63c1.62,6.66,5.37,13.28,11.62,16.08
		c6.61,2.95,14.52,0.94,20.61-2.97c6.09-3.91,10.88-9.49,16.13-14.47c12.8-12.13,32.36-16.18,49.22-10.82
		c10.15,3.23,19.77,10.36,22.25,20.62c-0.57-0.4-1.13-0.8-1.71-1.18c-15.45-10.14-35.61-13.02-53.71-5.17
		c-18.7,8.11-29.31,22.98-33.02,42.36c-8.22,1.46-16.13,2.15-23.59,4.34c-12.24,3.6-19.02,14.15-17.32,25.59
		c1.43,9.66,7.66,15.93,15.55,20.76c3.42,2.1,6.95,3.88,10.56,5.41c9.53,4.04,20.07,5.5,30.2,3.36c2.38-0.5,4.73-1.18,7.02-2.08
		c7.85-3.06,15.08-9.08,17.93-17.18c1.63-4.62,9.02-2.62,7.38,2.03c-3.5,9.95-11.45,17.47-21.03,21.61
		c-1.46,0.63-2.94,1.18-4.44,1.66c12.03,1.94,24.12,3.3,36.27,1.15c14.64-2.59,28.4-7.53,38.6-19.02
		c11-12.41,16.74-28.81,14.65-45.29L762.14,140.29z M695.34,138.41c-0.75,5.54-5.45,9.07-11.01,8.27c-5.4-0.78-9.06-5.73-8.21-11.12
		c0.87-5.52,5.68-9.14,11.08-8.34C692.63,128.03,696.1,132.79,695.34,138.41z"/>
</g>
<g>
	<path class="st1" d="M432.72,132.35c-3.25,1.05-5.43,1.89-7.68,2.46c-13.92,3.5-20.78-1.45-21.53-15.55
		c-0.43-8.09-0.76-16.19-1.21-26.07c10.15,0,19.78,0,30.4-0.02c0-13.2,0-25.36,0-38.89c-12.12,0-24.48,0-37.56,0
		c11.87-18.99,12.42-21.68,11.61-35.93c-0.32-5.69-2.58-6.95-7.8-6.69c-10.81,0.53-21.65,0.57-32.47,0.69
		c-8.88,0.1-17.76,0.02-26.62,0.02c0,14.76,0,28.24,0,42.6c-5.4,0-19.79,0-24.74,0c0,5.31,0,10.46,0,15.55
		c-6.49-11.46-16.94-20.5-30.76-26.14c-12.67-5.17-25.67-7.32-38.88-7.32c-6.95,0-13.96,0.6-21.01,1.67
		c-36.74,5.57-59.89,30.81-62.54,68.18c-2.51,35.47,17.49,65,51.99,74.02c11.32,2.96,22.5,4.28,33.56,4.28
		c24.63,0,48.65-6.56,72.16-16.23c1.54-0.63,3.3-3.63,3.04-5.23c-2.2-13.61-4.83-27.16-7.44-41.34c-5.51,2.11-10.06,4.06-14.74,5.61
		c-10.36,3.44-20.85,6.58-31.59,6.58c-4.15,0-8.33-0.47-12.56-1.57c-7.61-1.98-17.17-6.11-21.65-10.47
		c29.04-3.98,58.05-7.95,87.45-11.98c0.78-6.12,0.81-12.01,0.16-17.61c5.59,0.21,12.25,0.4,14.67,0.59
		c0,13.17-0.58,25.49,0.12,37.73c1.64,28.66,16.66,47.08,42.03,51.63c19.11,3.43,37.22-1.08,54.63-8.75
		c1.3-0.57,2.83-2.73,2.72-4.02C435.44,157.75,434.07,145.38,432.72,132.35z M233.46,106.32c0-8.78-0.69-16.81,0.36-24.61
		c0.38-2.84,4.8-6.95,7.6-7.14c0.08-0.01,0.15-0.01,0.23-0.01c2.84,0,7.32,3.28,8.35,6.06c2.49,6.74,3.3,14.1,5.09,22.59
		C247.36,104.32,241.23,105.2,233.46,106.32z"/>
	<path class="st1" d="M154.29,106.37c1.86-26.27,13.14-47.24,31.62-60.53c-6.33-9.66-16.02-17.34-28.93-22.47
		c-10.64-4.23-22.23-8.04-33.51-8.43c-36.87-1.26-73.8-0.86-110.7-1.05c-1.25-0.01-2.5,0.5-4.81,0.99c0,56.25,0,112.45,0,169.02
		c26.34,0,52.91,0,80.85,0c0-13.27,0-25.98,0-38.91c14.71,0,28.68,0.9,42.5-0.18c9.93-0.78,18.84-3,26.65-6.5
		C154.76,128.38,153.5,117.61,154.29,106.37z M105.39,98.04c-2.52,6.88-7.95,10.11-16.17,8.35c0-18.31,0-36.48,0-54.89
		c7.99-1.81,13.44,1.27,16.05,8.13C110.1,72.3,110.05,85.34,105.39,98.04z"/>
</g>
</svg>
